<svg display="none" xmlns="http://www.w3.org/2000/svg">
  <symbol id="header-logo-mobile" viewBox="0 0 190 38" >
      <g clip-path="url(#clip0_92920_342)">
      <path d="M6.0117 20.9349V18.6514C12.6311 17.7242 19.3065 17.2752 25.988 17.3076C25.988 17.9139 25.988 18.5302 25.9286 19.1465C27.8277 18.2867 29.8236 17.6691 31.8709 17.3076C30.5661 13.8643 28.1884 10.9536 25.1037 9.02347C22.0189 7.09332 18.398 6.25055 14.7979 6.62482C11.1978 6.9991 7.81798 8.56967 5.17831 11.095C2.53863 13.6202 0.785353 16.9603 0.188175 20.6014L6.0117 20.9349Z" fill="#FDC305"/>
      <path d="M26.9784 24.4813C25.8295 25.7745 25.6017 25.6937 25.6017 27.967C25.6017 28.8865 25.6017 32.9178 25.6017 37.2422C27.8723 35.7125 29.7362 33.6331 31.0271 31.1895C32.3181 28.746 32.9959 26.0143 33 23.2385C32.9869 22.1869 32.8809 21.1385 32.6831 20.1064C30.6312 21.3486 28.7183 22.8156 26.9784 24.4813Z" fill="#FDC305"/>
      <path d="M6.29892 25.9867C6.29892 25.9867 2.54532 24.5318 1.15876 24.1377C0.779508 24.0158 0.392293 23.9212 0 23.8548C0.107354 26.7707 0.956315 29.608 2.4635 32.0879C3.97068 34.5679 6.08426 36.6053 8.59664 38L6.29892 25.9867Z" fill="#FDC305"/>
      <path d="M26.0375 17.2975C26.0778 11.7189 25.6136 6.1484 24.651 0.656758C24.651 0.656758 24.5123 -0.646619 23.7695 0.414269C23.1861 1.67535 22.7857 3.01637 22.581 4.39513C18.3638 4.11805 14.1305 4.23303 9.93367 4.73865C9.15126 2.02076 7.77461 0.757795 7.11104 1.01039C6.44748 1.26298 6.39796 4.35471 6.39796 4.35471L6.07113 18.6009C12.6882 17.6876 19.3603 17.252 26.0375 17.2975Z" fill="#F06351"/>
      <path d="M12.2908 14.1452C12.2908 14.0542 13.2812 14.8322 13.6873 15.0747C14.0933 15.3172 14.2914 15.4991 14.2914 15.6708C14.2914 15.8426 14.024 16.0144 13.6675 16.0144C13.3109 16.0144 12.7662 15.8931 12.6771 15.7416H13.608H13.8953C13.2918 15.2863 12.7521 14.7492 12.2908 14.1452Z" fill="black"/>
      <path d="M19.699 14.2563L18.6194 15.6001C18.6194 15.6607 18.4511 15.9537 18.7977 15.9032C19.2079 15.8408 19.6122 15.7428 20.006 15.6102C20.1149 15.6102 20.0753 15.4182 19.8971 15.4384C19.7188 15.4587 19.2137 15.489 18.9067 15.5496L19.7386 14.2765C19.7386 14.2765 19.8079 14.1452 19.699 14.2563Z" fill="black"/>
      <path d="M16.5891 20.4095C17.0482 20.2031 17.4277 19.848 17.6687 19.3991C17.946 18.7424 17.6687 18.4797 17.2329 18.3887C16.6366 18.2777 16.0211 18.4004 15.5096 18.7323C15.1233 19.096 15.1729 19.4597 15.4601 19.7426C15.808 20.0116 16.1872 20.2356 16.5891 20.4095Z" fill="black"/>
      <path d="M16.193 21.6724C16.082 21.9033 15.9271 22.1094 15.7374 22.2786C15.4553 22.5102 15.1086 22.6446 14.747 22.6626C14.2259 22.705 13.7077 22.5504 13.2911 22.2281C13.0953 22.1077 12.9183 21.9578 12.7662 21.7836C12.6667 21.6715 12.5452 21.582 12.4097 21.5209C12.4097 21.5209 13.1525 25.6634 14.955 26.3201C16.7575 26.9769 17.0744 25.5623 17.1339 25.1784C17.1934 24.0318 16.9102 22.8937 16.3217 21.9149C16.3019 21.6017 16.292 21.8038 16.193 21.6724Z" fill="#F06351"/>
      <path d="M14.5687 22.8242C14.1085 22.7583 13.6664 22.597 13.2695 22.3503C12.8727 22.1035 12.5295 21.7766 12.2611 21.3895C12.2479 21.3764 12.2375 21.3606 12.2303 21.3433C12.2232 21.3259 12.2195 21.3073 12.2195 21.2885C12.2195 21.2697 12.2232 21.251 12.2303 21.2337C12.2375 21.2163 12.2479 21.2006 12.2611 21.1874C12.274 21.174 12.2894 21.1633 12.3064 21.156C12.3234 21.1487 12.3417 21.145 12.3601 21.145C12.3786 21.145 12.3969 21.1487 12.4139 21.156C12.4309 21.1633 12.4463 21.174 12.4592 21.1874C12.9591 21.8889 13.71 22.3608 14.5489 22.5009C14.8774 22.4757 15.1952 22.3709 15.476 22.1952C15.7568 22.0194 15.9924 21.7779 16.1633 21.4906L16.3019 21.2986L16.401 21.5108C16.401 21.5108 16.7674 22.2786 17.3914 22.3191C18.0153 22.3595 18.4313 21.9048 18.9859 21.0258C18.9988 21.0123 19.0142 21.0017 19.0312 20.9944C19.0482 20.9871 19.0665 20.9833 19.0849 20.9833C19.1034 20.9833 19.1216 20.9871 19.1386 20.9944C19.1557 21.0017 19.1711 21.0123 19.184 21.0258C19.216 21.0466 19.2389 21.0792 19.2482 21.1168C19.2574 21.1544 19.2521 21.1941 19.2335 21.2279C18.5996 22.2382 17.9757 22.6828 17.3715 22.6424C17.1418 22.6083 16.9226 22.5215 16.7304 22.3885C16.5383 22.2555 16.3782 22.0797 16.2623 21.8745C16.0675 22.1518 15.8142 22.3811 15.5212 22.5455C15.2281 22.7098 14.9026 22.8051 14.5687 22.8242Z" fill="black"/>
      <path d="M25.988 19.1162C24.2097 20.7567 22.5327 22.508 20.9667 24.36C19.4104 26.2051 17.6526 27.8627 15.7275 29.3007C15.5096 28.7652 14.1231 27.7751 14.1231 27.7751C14.1231 27.7751 11.0231 25.6129 8.9928 23.9154C7.89756 22.9731 6.86216 21.9607 5.89286 20.8843L3.91207 20.7732C6.77449 25.0224 10.9639 28.1565 15.7968 29.6645C16.6486 29.523 19.0354 27.7852 20.8181 26.3706C22.9167 24.5337 24.8827 22.5448 26.7011 20.4196C27.1988 19.8245 27.5818 19.1389 27.8301 18.3988C26.7407 18.7929 25.988 19.1162 25.988 19.1162Z" fill="#F06351"/>
      </g>
      <g clip-path="url(#clip1_92920_342)">
      <path d="M90.2645 26.5385C89.3696 25.2762 88.9253 23.7627 89 22.2308V15.8462C88.8916 14.2977 89.3081 12.7575 90.1855 11.4615C91.0548 10.4615 92.3983 10 94.374 10C96.3498 10 97.6143 10.4615 98.4045 11.3077C99.2626 12.3794 99.6846 13.7214 99.59 15.0769V16.6154H95.7175V14.8462C95.7488 14.3229 95.6681 13.799 95.4804 13.3077C95.3802 13.1094 95.2212 12.9448 95.024 12.8351C94.8269 12.7255 94.6005 12.6757 94.374 12.6923C93.8208 12.6923 93.4257 12.8462 93.2676 13.2308C93.0888 13.7773 93.0086 14.3499 93.0305 14.9231V23.1538C92.9888 23.71 93.0978 24.267 93.3466 24.7692C93.5047 25.1538 93.8999 25.3077 94.4531 25.3077C95.0063 25.3077 95.3224 25.1538 95.4804 24.7692C95.6601 24.2494 95.7405 23.7019 95.7175 23.1538V21.3077H99.59V22.8462C99.6704 24.2238 99.2508 25.5852 98.4045 26.6923C97.6143 27.6154 96.2707 28.0769 94.374 28.0769C92.4773 28 91.0548 27.5385 90.2645 26.5385Z" fill="#111111"/>
      <path d="M104.253 10.2308H108.757L112.077 27.7692H108.441L107.809 24.0769H105.201L104.569 27.7692H100.854L104.253 10.2308ZM107.493 21.7692L106.545 14.9231L105.596 21.7692H107.493Z" fill="#111111"/>
      <path d="M114.843 13.1538H112.156V10.2308H121.56V13.0769H118.873V27.7692H114.843V13.1538Z" fill="#111111"/>
      <path d="M128.752 10.2308H135.707V12.0769H131.202V17.8462H134.837V19.6154H131.202V26.0769H135.707V27.8462H128.673V10.2308H128.752Z" fill="#111111"/>
      <path d="M137.761 10.2308H139.5L144.637 21.8462V10.2308H146.692V27.7692H145.111L139.895 15.7692V27.7692H137.761V10.2308Z" fill="#111111"/>
      <path d="M149.063 10.2308H156.017V12.0769H151.513V17.8462H155.148V19.6154H151.513V26.0769H156.017V27.8462H149.063V10.2308Z" fill="#111111"/>
      <path d="M158.072 10.2308H161.707C163.137 10.1346 164.559 10.5144 165.738 11.3077C166.607 12 167.002 13.2308 167.002 14.8462C167.002 17.0769 166.291 18.4615 164.79 18.9231L167.318 27.6923H164.869L162.498 19.4615H160.522V27.6923H157.993V10.2308H158.072ZM161.549 17.7692C162.364 17.8346 163.176 17.6165 163.841 17.1538C164.315 16.7692 164.552 16 164.552 14.8462C164.574 14.273 164.494 13.7004 164.315 13.1538C164.137 12.7617 163.832 12.4373 163.446 12.2308C162.902 11.9893 162.304 11.8836 161.707 11.9231H160.601V17.6923H161.549V17.7692Z" fill="#111111"/>
      <path d="M170.164 26.4615C169.342 25.1166 168.956 23.5617 169.057 22V16.1538C169.038 15.0391 169.171 13.9268 169.452 12.8462C169.717 12.0386 170.244 11.3367 170.954 10.8462C171.836 10.3377 172.854 10.0967 173.878 10.1538C175.538 10.1538 176.723 10.5385 177.434 11.3846C178.252 12.5019 178.644 13.8624 178.541 15.2308V15.8462H176.17V15.3077C176.173 14.6635 176.12 14.0201 176.012 13.3846C175.945 12.983 175.718 12.6235 175.379 12.3846C174.935 12.1008 174.408 11.9658 173.878 12C173.311 11.9647 172.75 12.1284 172.297 12.4615C172.111 12.614 171.959 12.8018 171.851 13.0134C171.742 13.2251 171.679 13.4561 171.665 13.6923C171.561 14.38 171.508 15.0741 171.507 15.7692V22.3077C171.449 23.3038 171.61 24.3006 171.981 25.2308C172.297 25.8462 172.93 26.0769 173.878 26.0769C174.252 26.1223 174.632 26.0589 174.97 25.8947C175.307 25.7304 175.587 25.4727 175.775 25.1538C176.192 24.1811 176.381 23.1299 176.328 22.0769V20.8462H174.036V19.0769H178.62V27.7692H177.039L176.802 25.7692C176.595 26.4395 176.163 27.0231 175.576 27.4273C174.989 27.8315 174.28 28.0331 173.562 28C172.909 28.0374 172.256 27.9164 171.663 27.6479C171.07 27.3794 170.555 26.9717 170.164 26.4615Z" fill="#111111"/>
      <path d="M183.678 21.6154L179.805 10.3077H182.176L184.942 18.7692L187.629 10.3077H190L186.128 21.6154V27.7692H183.757V21.6154H183.678Z" fill="#111111"/>
      </g>
  </symbol>


  <symbol id="header-logo-tablet" viewBox="0 0 174 50">
      <g clip-path="url(#clip0_91458_612)">
    <path d="M51.2082 19.0509C49.734 15.4472 47.3597 12.3007 44.3221 9.92484C41.2845 7.54897 37.6896 6.02673 33.8957 5.50983C30.1017 4.99293 26.2413 5.49942 22.699 6.97882C19.1567 8.45823 16.0563 10.8589 13.7068 13.9415C11.3573 17.0242 9.84068 20.6812 9.30816 24.5481C8.77564 28.415 9.24578 32.3568 10.6717 35.9806C12.0977 39.6044 14.4296 42.7836 17.4352 45.2015C20.4408 47.6194 24.015 49.1915 27.8017 49.7611C27.3057 47.9377 26.8011 45.9223 26.3564 43.7848C27.6501 44.641 29.0118 45.3852 30.4271 46.0096C30.4271 46.0096 30.5298 47.8941 30.6666 49.9967C32.1959 50.0236 33.7237 49.8862 35.2247 49.5866C35.186 49.3674 35.186 49.1428 35.2247 48.9236C35.4727 47.2921 36.1569 44.3519 36.2937 42.4587C37.28 41.5176 38.1167 40.4256 38.7738 39.2219L38.7225 39.6058C38.2521 43.3224 37.2686 47.2921 36.67 48.3914C36.4762 48.7553 36.2377 49.0924 35.9602 49.3947C39.0558 48.6538 41.9564 47.235 44.461 45.2366C46.9656 43.2381 49.0141 40.7079 50.4647 37.8213C51.9152 34.9347 52.733 31.7607 52.8614 28.5196C52.9898 25.2784 52.4257 22.0475 51.2082 19.0509ZM49.9511 22.3575C49.5748 22.7326 48.7966 22.9856 48.6683 21.8514C48.54 20.7172 48.5058 19.9233 48.5058 19.9233C48.5058 19.9233 46.8553 16.9308 46.2396 16.8959C45.6238 16.861 41.2538 19.9233 40.0993 21.2582C39.0987 22.3836 38.9021 22.3051 38.9021 24.2856C38.9021 25.7775 39.0902 31.4135 38.9876 35.7234L32.0178 37.6166C29.8271 38.258 27.5993 38.7592 25.3473 39.1172L24.4921 34.0308H24.3724L22.1746 22.5407C22.1746 22.5407 18.9163 21.2843 17.719 20.9441C17.1569 20.6932 16.5361 20.6116 15.9299 20.709C15.3238 20.8064 14.7576 21.0787 14.2983 21.4937C13.8297 21.9123 13.4549 22.429 13.1996 23.0087C12.9443 23.5883 12.8144 24.2172 12.8188 24.8527C12.9996 25.2582 13.1372 25.6823 13.2293 26.1177C13.2721 26.5365 12.2031 26.4929 11.5189 26.4929C10.8348 26.4929 10.7322 25.2365 11.2709 23.7621C11.6912 22.6284 12.2122 21.5362 12.8274 20.4991C13.29 19.5728 13.8868 18.7228 14.5976 17.9778C14.5976 17.9778 14.7173 17.6811 15.6666 17.7684C16.6158 17.8556 21.8924 18.1435 21.8924 18.1435L21.9351 16.1631C27.6703 15.3552 33.4546 14.9645 39.2441 14.994C39.2441 15.5262 39.2441 16.0584 39.2441 16.5906C41.437 15.5696 43.7984 14.9777 46.2054 14.8457C46.3341 14.8423 46.4617 14.8717 46.5767 14.9311C46.6916 14.9905 46.7903 15.078 46.8638 15.1859C47.1546 15.5611 48.9249 17.8033 49.1301 18.1261C49.705 18.9642 50.2277 19.8384 50.6951 20.7434C50.5349 21.3165 50.2835 21.8588 49.9511 22.3487V22.3575Z" fill="#FDC305"/>
    <path d="M48.2839 17.0181C48.6859 17.5415 49.0365 18.0039 49.1391 18.1435C49.714 18.9817 50.2367 19.8558 50.7041 20.7609C50.5414 21.3151 50.2931 21.8393 49.9687 22.3138C49.5924 22.689 48.8142 22.942 48.6859 21.8078C48.5576 20.6736 48.5063 19.9233 48.5063 19.9233C48.5063 19.9233 46.8558 16.9308 46.24 16.8959C45.6243 16.861 41.2543 19.9233 40.0998 21.2582C39.0992 22.3836 38.9025 22.3051 38.9025 24.2856C38.9025 25.5942 39.0479 30.0874 39.0137 34.0832C40.5616 34.2577 42.8364 34.6939 43.5205 35.7234C43.5205 35.7234 43.2725 29.4592 50.1996 32.7396C50.1996 32.7396 50.439 24.1983 60 26.3882C56.7498 22.4952 52.7655 19.3086 48.2839 17.0181Z" fill="#F06351"/>
    <path d="M39.2788 14.994C39.3136 10.1595 38.9128 5.332 38.0815 0.572359C38.0815 0.572359 37.9533 -0.561827 37.3375 0.362971C36.8294 1.46856 36.4837 2.64443 36.3113 3.85277C32.6555 3.61347 28.986 3.71276 25.3478 4.14941C24.6465 1.75017 23.4493 0.659604 22.8763 0.947513C22.3033 1.23542 22.2349 3.80915 22.2349 3.80915L21.9527 16.1631C27.6936 15.3544 33.4836 14.9637 39.2788 14.994Z" fill="#F06351"/>
    <path d="M38.7821 39.2219C38.8933 38.2884 38.9531 37.0495 38.9874 35.6798L32.0179 37.573C29.8283 38.2291 27.6005 38.7449 25.3478 39.1172L26.297 43.4795C26.297 43.5755 26.297 43.6714 26.3569 43.7674C27.6505 44.6235 29.0121 45.3677 30.4273 45.9921C32.4957 44.9834 34.4656 43.777 36.3107 42.3889V42.4413C37.2925 41.5048 38.1262 40.4188 38.7821 39.2219Z" fill="#E55645"/>
    <path d="M27.366 12.2632C27.3233 12.176 28.2212 12.8565 28.5718 13.0659C28.9224 13.2752 29.0934 13.4323 29.0934 13.5806C29.0934 13.7289 28.8711 13.8772 28.5632 13.8772C28.2554 13.8772 27.7765 13.7725 27.7081 13.6504C27.6397 13.5282 28.2212 13.6504 28.5119 13.6504H28.7599C28.2334 13.2574 27.7642 12.7904 27.366 12.2632Z" fill="black"/>
    <path d="M33.7799 12.3592C33.7799 12.3592 32.9247 13.4759 32.8478 13.5283C32.7708 13.5806 32.7024 13.8249 33.0103 13.7813C33.3637 13.7274 33.7125 13.6458 34.0535 13.537C34.1476 13.4846 34.1134 13.3625 33.9509 13.3799C33.7884 13.3974 33.3694 13.4236 33.0958 13.4759L33.8227 12.3679C33.8227 12.3679 33.8483 12.2632 33.7799 12.3592Z" fill="black"/>
    <path d="M31.0946 17.6898C31.491 17.5117 31.8186 17.205 32.0267 16.8174C32.2661 16.2416 32.0267 16.0235 31.6504 15.9449C31.1328 15.8486 30.5986 15.9545 30.1539 16.2416C29.8204 16.5644 29.8632 16.8785 30.1539 17.114C30.4428 17.3451 30.7588 17.5386 31.0946 17.6898Z" fill="black"/>
    <path d="M30.7866 18.7891C30.6884 18.987 30.555 19.1645 30.3932 19.3126C30.1497 19.5125 29.8503 19.6286 29.5381 19.6441C29.0673 19.6913 28.5965 19.5541 28.2212 19.2603C28.0488 19.1574 27.8954 19.0245 27.7679 18.8677C27.6824 18.7726 27.5772 18.6981 27.4601 18.6495C27.4601 18.6495 28.1014 22.2353 29.6578 22.8111C31.2142 23.3869 31.5049 22.1481 31.5477 21.8165C31.5998 20.8236 31.3553 19.8379 30.8465 18.9898C30.8465 18.7281 30.8294 18.9026 30.7866 18.7891Z" fill="#F06351"/>
    <path d="M29.3328 19.7837C28.9326 19.725 28.5483 19.5842 28.2029 19.3698C27.8575 19.1554 27.5583 18.8718 27.3233 18.5361C27.3022 18.5121 27.2906 18.4811 27.2906 18.4489C27.2906 18.4167 27.3022 18.3856 27.3233 18.3616C27.3344 18.35 27.3477 18.3408 27.3624 18.3345C27.3771 18.3282 27.3928 18.325 27.4088 18.325C27.4247 18.325 27.4405 18.3282 27.4551 18.3345C27.4698 18.3408 27.4831 18.35 27.4943 18.3616C27.7059 18.6645 27.9744 18.9215 28.2841 19.1177C28.5939 19.3139 28.9387 19.4454 29.2986 19.5045C29.5834 19.4827 29.859 19.3922 30.1028 19.2406C30.3466 19.0889 30.5517 18.8804 30.7011 18.6321L30.8208 18.4663L30.9063 18.6583C30.9063 18.6583 31.2313 19.3213 31.7615 19.3562C32.2916 19.3911 32.6679 18.9898 33.1553 18.2308C33.1735 18.203 33.2017 18.1837 33.2338 18.1772C33.2659 18.1706 33.2992 18.1774 33.3264 18.1959C33.3536 18.2144 33.3725 18.2432 33.3789 18.2759C33.3853 18.3086 33.3787 18.3426 33.3606 18.3704C32.7905 19.2254 32.2517 19.6354 31.7444 19.6005C31.5482 19.574 31.3604 19.503 31.1947 19.3928C31.029 19.2826 30.8895 19.136 30.7866 18.9636C30.6193 19.202 30.402 19.3993 30.1505 19.5412C29.899 19.683 29.6197 19.7659 29.3328 19.7837Z" fill="black"/>
    <path d="M31.009 31.5269C32.78 31.5269 34.2158 30.0621 34.2158 28.2552C34.2158 26.4483 32.78 24.9835 31.009 24.9835C29.2379 24.9835 27.8022 26.4483 27.8022 28.2552C27.8022 30.0621 29.2379 31.5269 31.009 31.5269Z" fill="#FDC305"/>
    <path d="M35.259 25.5942L32.5824 26.7372L33.5658 21.8253L27.1522 30.3404L29.8288 29.1975L28.8454 34.1181L35.259 25.5942ZM28.9395 28.9357L32.4969 24.2158L31.8042 27.7056L33.5145 26.9902L29.9314 31.7188L30.6241 28.229L28.9395 28.9357Z" fill="#111111"/>
    <path d="M27.7422 27.6532C28.2712 27.6532 28.7 27.2157 28.7 26.6761C28.7 26.1364 28.2712 25.6989 27.7422 25.6989C27.2133 25.6989 26.7845 26.1364 26.7845 26.6761C26.7845 27.2157 27.2133 27.6532 27.7422 27.6532Z" fill="#111111"/>
    <path d="M33.3181 31.1954C33.6912 31.1954 33.9937 30.8868 33.9937 30.5061C33.9937 30.1255 33.6912 29.8169 33.3181 29.8169C32.945 29.8169 32.6425 30.1255 32.6425 30.5061C32.6425 30.8868 32.945 31.1954 33.3181 31.1954Z" fill="#111111"/>
    <path d="M34.1391 29.3022C34.3044 29.3022 34.4384 29.1654 34.4384 28.9968C34.4384 28.8282 34.3044 28.6914 34.1391 28.6914C33.9738 28.6914 33.8398 28.8282 33.8398 28.9968C33.8398 29.1654 33.9738 29.3022 34.1391 29.3022Z" fill="#111111"/>
    <path d="M39.236 16.5731C37.6923 17.9928 36.2384 19.511 34.8831 21.1186C33.5331 22.7145 32.0097 24.1487 30.3421 25.3936C30.1539 24.9312 28.9481 24.0675 28.9481 24.0675C28.9481 24.0675 26.2628 22.1917 24.5011 20.7172C23.5488 19.908 22.6516 19.0336 21.8158 18.0999L20.1055 18.0039C22.5744 21.6832 26.1915 24.4015 30.3677 25.7164C31.1032 25.5942 33.1727 24.0849 34.7206 22.8548C36.5519 21.2659 38.2669 19.5426 39.8518 17.6986C40.2778 17.1821 40.6081 16.5908 40.8267 15.9537C39.8518 16.2852 39.236 16.5731 39.236 16.5731Z" fill="#F06351"/>
    <path d="M22.175 22.5407C22.175 22.5407 18.9168 21.2843 17.7195 20.9441C17.1573 20.6932 16.5365 20.6116 15.9304 20.709C15.3243 20.8064 14.7581 21.0787 14.2987 21.4937C13.8301 21.9123 13.4554 22.429 13.2001 23.0087C12.9448 23.5883 12.8149 24.2172 12.8193 24.8527C13 25.2582 13.1377 25.6823 13.2298 26.1177C13.2725 26.5365 12.2035 26.4929 11.5194 26.4929C10.8352 26.4929 10.7326 25.2365 11.2714 23.7621C11.6917 22.6284 12.2127 21.5362 12.8278 20.4991C8.16705 22.9769 0 28.7002 0 28.7002C2.33611 28.5564 4.68014 28.6265 7.00399 28.9096C11.4937 29.372 11.2799 32.9839 11.2799 32.9839C12.8591 32.5398 14.4684 32.2161 16.0946 32.0155C17.9076 31.8933 18.0359 33.8651 18.0359 33.8651L18.4892 37.2327C19.1774 36.4731 19.9364 35.7835 20.7554 35.1738C21.8111 34.3116 23.1553 33.9046 24.5011 34.0396L22.175 22.5407Z" fill="#F06351"/>
    <path d="M74.2184 32.4708C73.3349 31.1952 72.9125 29.6692 73.0177 28.1337V21.8663C72.9063 20.3195 73.3223 18.7802 74.2013 17.4875C74.996 16.4903 76.3539 15.9945 78.275 16C80.1961 16.0056 81.4969 16.4429 82.1773 17.312C83.0069 18.389 83.4117 19.7206 83.3179 21.0641V22.5348H79.7673V20.9388C79.7625 20.5188 79.7253 20.0998 79.6558 19.6853C79.6129 19.3852 79.4715 19.1067 79.2527 18.8914C79.1177 18.7786 78.9609 18.6931 78.7916 18.64C78.6222 18.5869 78.4437 18.5673 78.2664 18.5822C78.0119 18.5452 77.7518 18.5855 77.5217 18.6977C77.2915 18.8098 77.1023 18.9883 76.98 19.209C76.7545 19.7958 76.6552 20.4216 76.6884 21.0474V29.0028C76.6493 29.6327 76.7639 30.2628 77.0229 30.8412C77.1466 31.0499 77.3302 31.2188 77.5512 31.3272C77.7721 31.4356 78.0207 31.4787 78.2664 31.4513C78.5079 31.4845 78.754 31.4427 78.9696 31.3316C79.1852 31.2206 79.3593 31.046 79.4671 30.8329C79.6746 30.2449 79.7648 29.6238 79.733 29.0028V27.3315H83.2836V28.7772C83.3881 30.1405 83.0164 31.4982 82.2287 32.6295C81.474 33.5487 80.1704 34 78.3179 34C76.4654 34 75.016 33.4986 74.2184 32.4708Z" fill="#111111"/>
    <path d="M88.1555 16.2424H92.2207L95.6513 33.7911H92.2722L91.6633 29.9137H88.8159L88.1298 33.766H84.6993L88.1555 16.2424ZM91.2859 27.7075L90.2053 20.6546L89.1332 27.7075H91.2859Z" fill="#111111"/>
    <path d="M98.2848 18.883H95.506V16.2424H104.7V18.883H101.955V33.766H98.2762L98.2848 18.883Z" fill="#111111"/>
    <path d="M111.913 16.2424H118.886V18.0641H114.426V23.8552H118.045V25.585H114.426V32.0111H118.929V33.766H111.913V16.2424Z" fill="#444444"/>
    <path d="M120.953 16.2424H122.669L127.814 27.883V16.2424H129.907V33.7911H128.303L123.157 21.8245V33.766H121.03L120.953 16.2424Z" fill="#444444"/>
    <path d="M132.678 16.2424H139.642V18.0641H135.182V23.8552H138.836V25.585H135.216V32.0111H139.693V33.766H132.678V16.2424Z" fill="#444444"/>
    <path d="M141.709 16.2424H145.328C146.754 16.1306 148.175 16.5188 149.333 17.3371C150.191 18.0641 150.611 19.2507 150.611 20.897C150.611 23.1254 149.871 24.4875 148.39 24.9833L150.963 33.766H148.527L146.169 25.5432H144.222V33.766H141.709V16.2424ZM145.14 23.7633C145.966 23.8411 146.792 23.6146 147.455 23.1282C147.725 22.8174 147.926 22.4561 148.047 22.0667C148.168 21.6772 148.206 21.2678 148.158 20.8635C148.176 20.2966 148.091 19.7311 147.91 19.1922C147.836 18.9936 147.722 18.8113 147.575 18.6563C147.427 18.5013 147.25 18.3766 147.052 18.2897C146.495 18.0672 145.895 17.9673 145.294 17.9973H144.188V23.7967L145.14 23.7633Z" fill="#444444"/>
    <path d="M153.991 32.4708C153.171 31.1225 152.791 29.5634 152.902 28V22.1504C152.872 21.0216 153.017 19.8949 153.33 18.8078C153.578 17.9906 154.105 17.2802 154.823 16.7939C155.69 16.2848 156.693 16.0403 157.704 16.092C158.358 16.0314 159.018 16.1107 159.637 16.3243C160.256 16.5379 160.82 16.8807 161.289 17.3287C162.112 18.4519 162.501 19.8223 162.387 21.1978V21.8496H160.029V21.3064C160.045 20.6568 159.993 20.0072 159.874 19.3677C159.796 18.9579 159.564 18.5913 159.222 18.3399C158.777 18.0839 158.263 17.9645 157.747 17.9973C157.187 17.9506 156.63 18.1184 156.195 18.4652C155.839 18.7941 155.607 19.2294 155.535 19.702C155.426 20.3903 155.377 21.0864 155.389 21.7828V28.2925C155.321 29.2817 155.494 30.2725 155.895 31.1839C156.128 31.4641 156.423 31.6888 156.758 31.8408C157.094 31.9928 157.461 32.068 157.831 32.0608C158.2 32.0535 158.564 31.9639 158.893 31.7989C159.222 31.6339 159.507 31.3978 159.728 31.1086C160.142 30.1448 160.321 29.1009 160.252 28.0585V26.8217H157.97V25.0919H162.516V33.766H160.963L160.715 31.7521C160.518 32.4212 160.095 33.0058 159.514 33.4109C158.933 33.816 158.229 34.0177 157.516 33.9833C156.845 34.0409 156.17 33.9325 155.554 33.668C154.938 33.4036 154.4 32.9918 153.991 32.4708Z" fill="#444444"/>
    <path d="M167.731 27.5822L163.846 16.2424H166.178L168.931 24.6992L171.642 16.2424H174L170.141 27.5822V33.766H167.739L167.731 27.5822Z" fill="#444444"/>
    </g>
  </symbol>


  <symbol id="header-logo-desktop" viewBox="0 0 202 59">
    <g clip-path="url(#clip0_91458_665)">
    <path d="M59.7434 23.8063C58.0235 19.7092 55.2535 16.1318 51.7097 13.4305C48.1658 10.7293 43.9717 8.99857 39.5455 8.41088C35.1192 7.82319 30.6153 8.39905 26.4827 10.0811C22.35 11.7631 18.7329 14.4925 15.9918 17.9973C13.2507 21.5021 11.4814 25.6599 10.8601 30.0564C10.2388 34.4529 10.7873 38.9344 12.4509 43.0545C14.1145 47.1745 16.8351 50.7892 20.3416 53.5382C23.8482 56.2872 28.0181 58.0746 32.4359 58.7223C31.8572 56.6491 31.2685 54.3578 30.7497 51.9275C32.259 52.9009 33.8476 53.747 35.4989 54.457C35.4989 54.457 35.6186 56.5995 35.7782 58.9901C37.5624 59.0207 39.3448 58.8644 41.0961 58.5239C41.0508 58.2746 41.0508 58.0193 41.0961 57.77C41.3854 55.9151 42.1836 52.5723 42.3432 50.4198C43.4939 49.3498 44.47 48.1082 45.2366 46.7397L45.1767 47.1762C44.628 51.4018 43.4806 55.9151 42.7822 57.1649C42.5561 57.5786 42.2778 57.962 41.9541 58.3056C45.5656 57.4633 48.9497 55.8502 51.8717 53.5781C54.7937 51.3059 57.1837 48.4292 58.876 45.1473C60.5683 41.8653 61.5224 38.2568 61.6722 34.5717C61.822 30.8867 61.1638 27.2133 59.7434 23.8063ZM58.2768 27.5657C57.8378 27.9923 56.9299 28.2799 56.7802 26.9904C56.6305 25.7009 56.5906 24.7983 56.5906 24.7983C56.5906 24.7983 54.665 21.3959 53.9467 21.3563C53.2283 21.3166 48.13 24.7983 46.7831 26.3159C45.6157 27.5955 45.3863 27.5062 45.3863 29.7579C45.3863 31.4541 45.6058 37.862 45.486 42.7621L37.3546 44.9146C34.7988 45.6438 32.1997 46.2137 29.5724 46.6207L28.5747 40.8378H28.435L25.8709 27.774C25.8709 27.774 22.0696 26.3457 20.6728 25.9588C20.0169 25.6735 19.2926 25.5808 18.5855 25.6915C17.8783 25.8023 17.2178 26.1118 16.6819 26.5837C16.1352 27.0597 15.698 27.6471 15.4001 28.3061C15.1023 28.9651 14.9507 29.6802 14.9558 30.4027C15.1667 30.8637 15.3273 31.3459 15.4347 31.841C15.4846 32.3171 14.2375 32.2675 13.4393 32.2675C12.6411 32.2675 12.5214 30.8391 13.15 29.1627C13.6403 27.8737 14.2482 26.632 14.9658 25.4529C15.5056 24.3997 16.2018 23.4333 17.0311 22.5862C17.0311 22.5862 17.1708 22.249 18.2782 22.3482C19.3857 22.4474 25.5416 22.7747 25.5416 22.7747L25.5915 20.523C32.2826 19.6045 39.0309 19.1603 45.7853 19.1938C45.7853 19.7989 45.7853 20.404 45.7853 21.0091C48.3438 19.8483 51.0986 19.1754 53.9068 19.0252C54.057 19.0214 54.2059 19.0548 54.34 19.1223C54.474 19.1898 54.5892 19.2894 54.675 19.4121C55.0142 19.8386 57.0795 22.3879 57.319 22.7549C57.9896 23.7078 58.5995 24.7017 59.1448 25.7307C58.9579 26.3822 58.6646 26.9988 58.2768 27.5558V27.5657Z" fill="#FDC305"/>
    <path d="M56.3312 21.4951C56.8001 22.0903 57.2092 22.616 57.3289 22.7747C57.9996 23.7277 58.6094 24.7215 59.1547 25.7505C58.9649 26.3806 58.6753 26.9767 58.2967 27.5161C57.8577 27.9427 56.9498 28.2303 56.8001 26.9408C56.6505 25.6513 56.5906 24.7983 56.5906 24.7983C56.5906 24.7983 54.665 21.3959 53.9467 21.3563C53.2283 21.3166 48.13 24.7983 46.783 26.3159C45.6157 27.5955 45.3862 27.5062 45.3862 29.7579C45.3862 31.2458 45.5558 36.3542 45.5159 40.8973C47.3218 41.0957 49.9757 41.5916 50.7739 42.7621C50.7739 42.7621 50.4846 35.64 58.5661 39.3697C58.5661 39.3697 58.8455 29.6587 70 32.1485C66.2081 27.7223 61.5597 24.0994 56.3312 21.4951Z" fill="#F06351"/>
    <path d="M45.8252 19.1938C45.8658 13.6973 45.3982 8.2087 44.4284 2.79724C44.4284 2.79724 44.2788 1.50773 43.5604 2.55918C42.9676 3.81617 42.5642 5.15308 42.3631 6.5269C38.0981 6.25483 33.817 6.36771 29.5724 6.86415C28.7543 4.13635 27.3575 2.89643 26.689 3.22377C26.0205 3.55111 25.9407 6.4773 25.9407 6.4773L25.6115 20.523C32.3091 19.6036 39.0641 19.1594 45.8252 19.1938Z" fill="#F06351"/>
    <path d="M45.2458 46.7397C45.3755 45.6784 45.4453 44.2698 45.4852 42.7125L37.3542 44.865C34.7996 45.611 32.2006 46.1974 29.5724 46.6207L30.6798 51.5804C30.6798 51.6895 30.6798 51.7986 30.7496 51.9077C32.2589 52.8811 33.8474 53.7272 35.4985 54.4371C37.9116 53.2903 40.2099 51.9186 42.3625 50.3404V50.4C43.5079 49.3352 44.4805 48.1005 45.2458 46.7397Z" fill="#E55645"/>
    <path d="M31.927 16.0891C31.8771 15.9899 32.9247 16.7636 33.3337 17.0017C33.7428 17.2397 33.9423 17.4183 33.9423 17.5869C33.9423 17.7556 33.6829 17.9242 33.3238 17.9242C32.9646 17.9242 32.4059 17.8051 32.3261 17.6663C32.2463 17.5274 32.9247 17.6663 33.2639 17.6663H33.5532C32.939 17.2195 32.3915 16.6885 31.927 16.0891Z" fill="black"/>
    <path d="M39.4099 16.1982C39.4099 16.1982 38.4122 17.4679 38.3224 17.5274C38.2326 17.5869 38.1528 17.8647 38.512 17.8151C38.9243 17.7539 39.3312 17.661 39.7291 17.5373C39.8389 17.4778 39.799 17.3389 39.6094 17.3588C39.4199 17.3786 38.931 17.4084 38.6117 17.4679L39.4598 16.2081C39.4598 16.2081 39.4897 16.0891 39.4099 16.1982Z" fill="black"/>
    <path d="M36.277 22.2589C36.7395 22.0563 37.1217 21.7077 37.3645 21.267C37.6438 20.6123 37.3645 20.3643 36.9255 20.275C36.3216 20.1655 35.6983 20.2859 35.1796 20.6123C34.7905 20.9793 34.8404 21.3364 35.1796 21.6042C35.5166 21.867 35.8852 22.0869 36.277 22.2589Z" fill="black"/>
    <path d="M35.9177 23.5087C35.8031 23.7337 35.6475 23.9355 35.4587 24.1039C35.1746 24.3312 34.8253 24.4631 34.4611 24.4808C33.9118 24.5344 33.3626 24.3784 32.9247 24.0444C32.7236 23.9274 32.5446 23.7764 32.3959 23.598C32.2961 23.49 32.1734 23.4053 32.0367 23.35C32.0367 23.35 32.785 27.4269 34.6008 28.0815C36.4165 28.7362 36.7557 27.3277 36.8056 26.9507C36.8664 25.8218 36.5811 24.7011 35.9875 23.7369C35.9875 23.4393 35.9676 23.6377 35.9177 23.5087Z" fill="#F06351"/>
    <path d="M34.2216 24.6395C33.7547 24.5728 33.3063 24.4127 32.9033 24.1689C32.5004 23.9251 32.1513 23.6027 31.8771 23.2211C31.8526 23.1938 31.839 23.1585 31.839 23.1219C31.839 23.0853 31.8526 23.05 31.8771 23.0227C31.8901 23.0095 31.9056 22.999 31.9228 22.9919C31.9399 22.9847 31.9583 22.981 31.9769 22.981C31.9954 22.981 32.0138 22.9847 32.031 22.9919C32.0481 22.999 32.0636 23.0095 32.0766 23.0227C32.3235 23.3671 32.6367 23.6593 32.9981 23.8823C33.3595 24.1054 33.7618 24.2549 34.1817 24.3221C34.5139 24.2973 34.8355 24.1945 35.1199 24.022C35.4044 23.8496 35.6436 23.6125 35.8179 23.3302L35.9576 23.1417L36.0573 23.36C36.0573 23.36 36.4364 24.1138 37.055 24.1535C37.6736 24.1932 38.1125 23.7369 38.6812 22.8739C38.7024 22.8423 38.7353 22.8204 38.7727 22.813C38.8101 22.8055 38.849 22.8132 38.8807 22.8342C38.9125 22.8553 38.9345 22.888 38.942 22.9252C38.9495 22.9624 38.9418 23.001 38.9206 23.0326C38.2555 24.0047 37.627 24.4709 37.035 24.4312C36.8063 24.4011 36.5871 24.3204 36.3938 24.1951C36.2004 24.0698 36.0378 23.9031 35.9177 23.7071C35.7225 23.9781 35.4689 24.2025 35.1755 24.3638C34.8821 24.5251 34.5563 24.6193 34.2216 24.6395Z" fill="black"/>
    <path d="M36.1771 37.9909C38.2433 37.9909 39.9183 36.3255 39.9183 34.2712C39.9183 32.2168 38.2433 30.5514 36.1771 30.5514C34.1108 30.5514 32.4358 32.2168 32.4358 34.2712C32.4358 36.3255 34.1108 37.9909 36.1771 37.9909Z" fill="#FDC305"/>
    <path d="M41.1355 31.2458L38.0128 32.5452L39.1601 26.9607L31.6776 36.6419L34.8003 35.3425L33.653 40.937L41.1355 31.2458ZM33.7627 35.0449L37.913 29.6786L37.1049 33.6463L39.1003 32.8329L34.92 38.2092L35.7282 34.2414L33.7627 35.0449Z" fill="#111111"/>
    <path d="M32.3659 33.5868C32.983 33.5868 33.4833 33.0894 33.4833 32.4758C33.4833 31.8622 32.983 31.3648 32.3659 31.3648C31.7488 31.3648 31.2485 31.8622 31.2485 32.4758C31.2485 33.0894 31.7488 33.5868 32.3659 33.5868Z" fill="#111111"/>
    <path d="M38.871 37.614C39.3063 37.614 39.6592 37.2631 39.6592 36.8304C39.6592 36.3976 39.3063 36.0467 38.871 36.0467C38.4358 36.0467 38.0829 36.3976 38.0829 36.8304C38.0829 37.2631 38.4358 37.614 38.871 37.614Z" fill="#111111"/>
    <path d="M39.8288 35.4615C40.0216 35.4615 40.178 35.3061 40.178 35.1143C40.178 34.9226 40.0216 34.7672 39.8288 34.7672C39.6359 34.7672 39.4796 34.9226 39.4796 35.1143C39.4796 35.3061 39.6359 35.4615 39.8288 35.4615Z" fill="#111111"/>
    <path d="M45.7753 20.9892C43.9742 22.6034 42.278 24.3295 40.6969 26.1572C39.1219 27.9717 37.3445 29.6023 35.399 31.0177C35.1795 30.4919 33.7727 29.5099 33.7727 29.5099C33.7727 29.5099 30.6399 27.3773 28.5846 25.7009C27.4735 24.7809 26.4268 23.7867 25.4517 22.7251L23.4563 22.616C26.3368 26.7991 30.5566 29.8897 35.4289 31.3847C36.287 31.2458 38.7014 29.5298 40.5073 28.1311C42.6438 26.3247 44.6446 24.3654 46.4936 22.2688C46.9906 21.6816 47.376 21.0094 47.631 20.285C46.4936 20.6619 45.7753 20.9892 45.7753 20.9892Z" fill="#F06351"/>
    <path d="M65.0708 3.47176L56.6305 12.8356L55.4133 10.8616L63.5443 0L65.0708 3.47176Z" fill="#FDC305"/>
    <path d="M62.507 17.1207L68.0341 13.0439L67.2559 9.33406L61.8685 14.1052L62.507 17.1207Z" fill="#FDC305"/>
    <path d="M59.7833 48.9716L65.899 52.1259L68.902 49.8048L62.2276 47.077L59.7833 48.9716Z" fill="#FDC305"/>
    <path d="M1.94543 5.92182L5.00828 2.58894L14.2766 11.5163L13.0595 13.7779L1.94543 5.92182Z" fill="#FDC305"/>
    <path d="M7.36287 16.1486L2.67383 13.0439L0.279419 16.8827L5.41742 19.2633L7.36287 16.1486Z" fill="#FDC305"/>
    <path d="M13.878 52.1259L9.33862 55.4489L12.1321 59L16.1427 55.0124L13.878 52.1259Z" fill="#FDC305"/>
    <path d="M25.8708 27.774C25.8708 27.774 22.0695 26.3457 20.6727 25.9588C20.0169 25.6735 19.2926 25.5808 18.5855 25.6915C17.8783 25.8023 17.2178 26.1118 16.6819 26.5837C16.1351 27.0597 15.6979 27.6471 15.4001 28.3061C15.1022 28.9651 14.9507 29.6802 14.9558 30.4027C15.1667 30.8637 15.3273 31.3459 15.4347 31.841C15.4846 32.3171 14.2374 32.2675 13.4393 32.2675C12.6411 32.2675 12.5214 30.8391 13.1499 29.1627C13.6403 27.8737 14.2481 26.632 14.9658 25.4529C9.52821 28.27 0 34.7771 0 34.7771C2.72546 34.6137 5.46016 34.6933 8.17132 35.0151C13.4093 35.5409 13.1599 39.6474 13.1599 39.6474C15.0022 39.1425 16.8798 38.7745 18.7771 38.5464C20.8922 38.4075 21.0419 40.6493 21.0419 40.6493L21.5707 44.4781C22.3736 43.6145 23.2591 42.8305 24.2146 42.1372C25.4463 41.157 27.0145 40.6942 28.5846 40.8477L25.8708 27.774Z" fill="#F06351"/>
    <path d="M85.4235 38.2159C84.3913 36.7277 83.8977 34.9474 84.0207 33.156V25.844C83.8905 24.0394 84.3766 22.2435 85.4035 20.7354C86.332 19.572 87.9185 18.9936 90.1629 19.0001C92.4074 19.0066 93.927 19.5168 94.722 20.5307C95.6912 21.7872 96.1642 23.3407 96.0546 24.9081V26.624H91.9064V24.7619C91.9008 24.2719 91.8572 23.7831 91.7761 23.2995C91.726 22.9494 91.5607 22.6245 91.3052 22.3733C91.1474 22.2417 90.9642 22.1419 90.7664 22.08C90.5685 22.0181 90.36 21.9951 90.1529 22.0126C89.8555 21.9694 89.5517 22.0164 89.2827 22.1473C89.0138 22.2781 88.7928 22.4864 88.6499 22.7438C88.3864 23.4284 88.2705 24.1585 88.3092 24.8886V34.1699C88.2635 34.9049 88.3974 35.6399 88.7 36.3148C88.8446 36.5582 89.0591 36.7553 89.3172 36.8817C89.5753 37.0082 89.8658 37.0585 90.1529 37.0265C90.435 37.0653 90.7225 37.0164 90.9744 36.8869C91.2263 36.7573 91.4297 36.5537 91.5557 36.305C91.798 35.6191 91.9035 34.8944 91.8663 34.1699V32.2201H96.0145V33.9067C96.1366 35.4972 95.7023 37.0812 94.7821 38.4011C93.9003 39.4735 92.3773 40 90.213 40C88.0487 40 86.3554 39.415 85.4235 38.2159Z" fill="#111111"/>
    <path d="M101.706 19.2828H106.456L110.464 39.7563H106.516L105.805 35.2326H102.478L101.676 39.727H97.6685L101.706 19.2828ZM105.364 32.6588L104.101 24.4304L102.849 32.6588H105.364Z" fill="#111111"/>
    <path d="M113.541 22.3636H110.294V19.2828H121.035V22.3636H117.829V39.727H113.53L113.541 22.3636Z" fill="#111111"/>
    <path d="M129.463 19.2828H137.609V21.4081H132.399V28.1644H136.627V30.1825H132.399V37.6797H137.659V39.727H129.463V19.2828Z" fill="#444444"/>
    <path d="M140.025 19.2828H142.029L148.041 32.8635V19.2828H150.485V39.7563H148.612L142.6 25.7953V39.727H140.115L140.025 19.2828Z" fill="#444444"/>
    <path d="M153.722 19.2828H161.859V21.4081H156.648V28.1644H160.917V30.1825H156.688V37.6797H161.919V39.727H153.722V19.2828Z" fill="#444444"/>
    <path d="M164.274 19.2828H168.502C170.169 19.1523 171.828 19.6052 173.182 20.5599C174.184 21.4081 174.675 22.7925 174.675 24.7131C174.675 27.3129 173.81 28.9021 172.079 29.4805L175.085 39.727H172.24L169.484 30.1337H167.21V39.727H164.274V19.2828ZM168.282 28.0571C169.247 28.148 170.212 27.8836 170.987 27.3162C171.302 26.9536 171.537 26.5322 171.679 26.0778C171.82 25.6234 171.864 25.1458 171.809 24.6741C171.829 24.0127 171.731 23.3529 171.518 22.7243C171.432 22.4925 171.299 22.2799 171.127 22.099C170.955 21.9182 170.747 21.7727 170.516 21.6714C169.866 21.4117 169.164 21.2952 168.462 21.3301H167.17V28.0961L168.282 28.0571Z" fill="#444444"/>
    <path d="M178.623 38.2159C177.665 36.643 177.221 34.8239 177.35 33V26.1755C177.316 24.8585 177.485 23.544 177.851 22.2758C178.141 21.3224 178.756 20.4935 179.595 19.9262C180.608 19.3323 181.781 19.047 182.962 19.1073C183.726 19.0366 184.496 19.1291 185.22 19.3783C185.943 19.6275 186.602 20.0275 187.15 20.5502C188.111 21.8605 188.566 23.4594 188.432 25.0641V25.8245H185.677V25.1908C185.696 24.4329 185.635 23.6751 185.497 22.929C185.405 22.4509 185.134 22.0232 184.735 21.7298C184.215 21.4312 183.614 21.2919 183.012 21.3301C182.357 21.2756 181.707 21.4715 181.198 21.8761C180.783 22.2597 180.511 22.7677 180.427 23.319C180.3 24.1221 180.243 24.9341 180.256 25.7466V33.3412C180.177 34.4953 180.379 35.6513 180.847 36.7145C181.119 37.0415 181.464 37.3036 181.856 37.4809C182.248 37.6582 182.677 37.746 183.109 37.7375C183.541 37.7291 183.966 37.6246 184.35 37.4321C184.734 37.2396 185.068 36.9641 185.326 36.6267C185.809 35.5023 186.018 34.2844 185.938 33.0683V31.6254H183.272V29.6073H188.583V39.727H186.769L186.479 37.3774C186.249 38.158 185.755 38.8401 185.076 39.3127C184.398 39.7853 183.575 40.0207 182.741 39.9805C181.958 40.0477 181.169 39.9212 180.449 39.6127C179.729 39.3042 179.101 38.8237 178.623 38.2159Z" fill="#444444"/>
    <path d="M194.675 32.5126L190.136 19.2828H192.862L196.078 29.1491L199.245 19.2828H202L197.491 32.5126V39.727H194.685L194.675 32.5126Z" fill="#444444"/>
    </g>

  </symbol>

  <symbol id="cat-program-slim" viewBox="0 0 200 211">
    <circle cx="100" cy="111" r="100" fill="#68B738"/>
    <g clip-path="url(#clip0_2403_755)">
    <path d="M139.68 0H138.92C137.636 0.725875 136.614 1.83883 136 3.18C134.875 5.34423 134.009 7.63331 133.42 10C133.294 10.7116 132.934 11.3611 132.398 11.8462C131.863 12.3313 131.181 12.6246 130.46 12.68C128.256 13.06 126.167 13.9386 124.355 15.2489C122.542 16.5591 121.052 18.2663 120 20.24C118.553 22.8026 117.316 25.478 116.3 28.24C113.46 35.6 111.28 43.2 108.6 50.62C107.34 54 107.28 54 103.48 54C98.94 54 99.26 53.3 99.2 58.3C99.2 59.88 99.68 60.68 101.36 60.6C101.88 60.6 102.66 60.34 102.86 61.02C103.06 61.7 102.38 62 101.98 62.4C99.6086 64.8073 96.6075 66.4984 93.32 67.28C89.52 68.3 85.64 69.1 81.94 70.34C72.44 73.52 63.66 77.96 56.82 85.48C52.8206 90.1507 49.6177 95.4483 47.34 101.16C40 118.44 36.44 136.64 33.68 155.02C32.38 163.64 31.46 172.3 30.76 181.02C30.4 185.3 30 189.64 30 194H96.66C96.7707 193.12 96.6102 192.227 96.2 191.44C95.5589 189.844 94.5171 188.441 93.1753 187.365C91.8335 186.29 90.237 185.578 88.54 185.3C87.14 184.98 86.98 184.56 87.84 183.46C89.2427 181.588 90.318 179.492 91.02 177.26C94.28 167.64 95.54 157.6 97.12 147.66C98.0125 140.068 100.348 132.716 104 126C106.849 121.057 110.649 116.727 115.18 113.26C116.84 112 116.9 112 117.18 114.14C117.38 115.56 117.42 117.02 117.52 118.46C118.12 127.909 118 137.39 117.16 146.82C116.405 154.13 116.304 161.492 116.86 168.82C117.655 177.327 119.174 185.751 121.4 194H148C147.653 191.835 146.656 189.826 145.142 188.241C143.627 186.655 141.667 185.567 139.52 185.12C137.013 184.722 134.45 184.858 132 185.52C130.8 185.8 130.3 185.52 130.2 184.22C129.373 173.632 130.046 162.98 132.2 152.58C134.868 140.574 136.91 128.438 138.32 116.22C138.845 111.286 140.398 106.517 142.88 102.22C145.26 97.98 147.34 93.58 149.68 89.32C150.609 87.771 151.168 86.0286 151.314 84.2282C151.46 82.4279 151.188 80.6182 150.52 78.94C149.98 77.52 149.46 76.08 148.8 74.72C146.8 70.82 144.8 66.96 142.96 63.02C141.98 61.02 142.2 60.78 144.38 60.72C147.64 60.72 147.64 60.72 147.7 57.44C147.7 57 147.7 56.56 147.7 56.12C147.7 54.74 147.18 53.98 145.7 54.12C144.7 54.12 143.7 54.12 142.66 54.12C141.28 54.12 140.88 53.54 141.22 52.12C141.895 49.8116 143.222 47.7473 145.042 46.1755C146.862 44.6037 149.098 43.5912 151.48 43.26C155.911 42.8758 160.376 43.1657 164.72 44.12C165.221 44.2779 165.765 44.2322 166.232 43.9927C166.7 43.7531 167.055 43.3391 167.22 42.84C168.02 40.84 168.9 38.84 169.8 36.84C170.004 36.4852 170.094 36.0763 170.058 35.6686C170.023 35.2608 169.863 34.8739 169.6 34.56C163.2 26.44 156.26 18.86 146.8 14C146.343 13.8033 145.942 13.4952 145.635 13.1039C145.328 12.7127 145.123 12.2506 145.04 11.76C144.505 8.90102 143.653 6.11051 142.5 3.44C141.959 2.01723 140.969 0.809563 139.68 0V0Z" fill="black"/>
    </g>
  </symbol>

  <symbol id="cat-program-mass" viewBox="0 0 268 200">
    <circle cx="134" cy="100" r="100" fill="#68B738"/>
    <g clip-path="url(#clip0_2403_774)">
    <path d="M246.236 55.5137C248.545 51.8399 251.614 48.7029 255.236 46.3137C257.236 44.9137 258.436 44.9137 259.636 47.5137C261.236 51.3137 262.636 55.3137 261.436 59.5137C261.218 60.226 261.177 60.9809 261.316 61.7128C261.456 62.4447 261.772 63.1315 262.236 63.7137C263.436 65.3137 264.436 66.9137 265.436 68.3137C266.797 70.0412 267.68 72.0963 267.996 74.2728C268.312 76.4492 268.05 78.6705 267.236 80.7137C266.502 82.6973 266.363 84.8522 266.836 86.9137C267.236 88.8937 267.236 90.9337 266.836 92.9137C266.675 94.3965 266.075 95.7975 265.113 96.9375C264.151 98.0775 262.871 98.9048 261.436 99.3137C258.878 99.8005 256.595 101.227 255.036 103.314C254.848 103.621 254.583 103.874 254.267 104.049C253.952 104.225 253.597 104.316 253.236 104.314C250.836 104.714 244.836 99.3137 244.836 96.9137V95.7137C245.036 88.5137 244.636 87.9137 238.036 84.9137C236.655 84.4265 235.417 83.6015 234.436 82.5137C233.236 80.9137 231.636 81.1137 229.836 81.7137C228.036 82.3137 227.036 83.5137 227.236 85.5137C227.84 90.3554 228.04 95.2388 227.836 100.114C227.85 100.67 227.986 101.217 228.236 101.714C234.436 110.714 236.836 121.314 239.836 131.514C242.236 139.314 246.636 143.514 254.636 144.114C255.917 144.216 257.187 144.416 258.436 144.714C260.08 144.978 261.607 145.729 262.819 146.87C264.031 148.011 264.873 149.489 265.236 151.114C266.636 155.314 265.836 156.314 261.636 156.314H248.636C246.953 156.399 245.303 155.825 244.036 154.714C242.012 153.005 239.713 151.653 237.236 150.714C234.499 149.703 232.129 147.891 230.436 145.514C228.094 142.241 225.412 139.224 222.436 136.514C216.836 130.714 210.836 125.114 205.636 119.114C201.678 115.025 199.395 109.602 199.236 103.914C199.236 102.114 198.836 101.314 196.836 102.114C196.238 102.494 195.546 102.701 194.836 102.714C189.236 102.714 186.436 106.114 184.436 111.114C182.636 115.314 180.236 119.314 178.036 123.514C176.789 126.143 176.108 129.005 176.036 131.914C176.036 136.714 177.236 138.314 181.636 139.914C184.436 140.914 187.036 141.914 188.436 144.714C190.036 147.914 189.636 148.714 186.236 148.914H172.636C171.852 148.991 171.064 148.821 170.382 148.426C169.7 148.031 169.16 147.432 168.836 146.714L165.236 140.714C164.175 139.148 163.496 137.356 163.253 135.48C163.01 133.605 163.21 131.698 163.836 129.914C164.702 126.441 164.77 122.817 164.036 119.314C163.532 116.874 163.576 114.353 164.164 111.932C164.752 109.511 165.869 107.25 167.436 105.314C168.636 103.914 168.636 103.314 166.636 102.914C158.458 101.176 150.53 98.4217 143.036 94.7137C142.983 94.7137 142.933 94.6926 142.895 94.6551C142.858 94.6176 142.836 94.5667 142.836 94.5137C136.436 92.1137 135.236 92.5137 133.436 99.1137C131.836 104.714 130.236 110.314 129.036 116.114C127.636 122.514 129.236 128.514 131.236 134.514C132.036 136.914 134.436 136.714 136.236 137.314C140.236 138.514 143.636 140.114 145.236 144.314C146.636 147.514 146.436 147.914 143.036 147.914C139.636 147.914 136.236 147.714 132.636 147.914C129.599 147.969 126.634 146.98 124.236 145.114C114.636 138.714 111.836 128.914 111.036 118.314C110.636 111.714 107.036 106.514 102.836 101.514C102.036 100.514 101.236 100.114 100.036 100.914C95.7434 103.281 91.2614 105.288 86.6365 106.914C76.985 110.322 68.5157 116.431 62.2365 124.514C59.8918 127.464 58.3732 130.984 57.8365 134.714C57.2365 138.314 58.2365 139.914 61.8365 140.914C65.4365 141.914 67.2365 143.914 67.6365 147.714C67.8365 149.314 67.2365 150.114 65.6365 150.114H49.4365C48.9063 150.076 48.393 149.911 47.9403 149.632C47.4876 149.354 47.1089 148.97 46.8365 148.514C44.3242 145.403 42.9798 141.512 43.0365 137.514C42.9315 130.604 43.5346 123.701 44.8365 116.914C45.1034 114.881 45.8623 112.944 47.0473 111.271C48.2323 109.598 49.8075 108.24 51.6365 107.314C63.4365 101.714 69.6365 91.1137 75.2365 80.1137C76.4365 77.9137 75.4365 77.5137 73.4365 77.7137C67.8391 78.4908 62.5358 80.6947 58.0365 84.1137C52.1448 88.4114 46.5949 93.1589 41.4365 98.3137C35.9358 103.901 28.6418 107.371 20.8365 108.114C6.23646 108.914 -0.56354 100.714 0.0364599 87.5137C0.170585 83.0129 1.86775 78.6993 4.83646 75.3137C5.8685 73.9757 7.27593 72.9757 8.87899 72.4413C10.4821 71.907 12.208 71.8625 13.8365 72.3137C16.8365 73.1137 17.6365 74.7137 16.4365 77.7137C15.8365 78.9137 15.0365 79.9137 14.4365 81.1137C13.5737 82.3396 12.8995 83.6879 12.4365 85.1137C10.2365 91.1137 13.2365 95.3137 19.4365 95.9137C26.0365 96.5137 31.4365 93.7137 36.4365 89.7137C42.4603 84.8902 47.8379 79.311 52.4365 73.1137C55.875 68.5885 60.2046 64.8163 65.1581 62.03C70.1116 59.2436 75.5837 57.5024 81.2365 56.9137C85.8365 56.3137 89.8365 54.3137 94.2365 53.1137C102.465 50.6049 111.034 49.3904 119.636 49.5137C123.621 49.6796 127.59 48.9269 131.236 47.3137C141.036 43.3137 151.236 43.3137 161.436 45.3137C169.436 46.9137 177.436 48.9137 185.236 50.9137C189.878 51.7787 194.651 51.6423 199.236 50.5137C208.014 48.2888 216.992 46.9488 226.036 46.5137C231.961 46.2254 237.867 47.3928 243.236 49.9137C247.236 51.7137 247.236 51.7137 246.236 55.5137Z" fill="black"/>
    </g>
  </symbol>

    <symbol id="arrow" viewBox="0 0 32 12">
        <line y1="6" x2="18" y2="6" stroke="black" stroke-width="2"/>
    <path d="M24 6L17.25 11.1962L17.25 0.803848L24 6Z" fill="black"/>
  </symbol>

    <symbol id="leaf" viewBox="0 0 60 60">
        <rect width="60" height="60" fill="#68B738"/>
    <g clip-path="url(#clip0_92924_391)">
    <path d="M42.8438 16.767C42.7434 16.317 42.3647 16 41.9325 16C41.9306 16 41.9288 16 41.9269 16C36.9891 16.033 24.9816 16.916 20.1337 24.38C17.6156 28.258 17.3991 33.293 19.4897 39.345C19.5056 39.392 19.5384 39.424 19.56 39.467C18.8128 41.44 18.5231 42.753 18.5156 42.79C18.4069 43.33 18.7303 43.862 19.2366 43.978C19.3022 43.993 19.3678 44 19.4334 44C19.8656 44 20.2547 43.679 20.3494 43.21C20.3691 43.108 22.7578 32.837 31.2028 26.832C31.6341 26.526 31.7503 25.905 31.4625 25.445C31.1747 24.985 30.5934 24.86 30.1622 25.168C25.3734 28.573 22.4241 33.176 20.6897 36.824C19.4484 32.246 19.7737 28.447 21.6759 25.519C25.4194 19.755 34.2984 18.365 39.6581 18.071C38.505 19.872 37.245 23.174 37.245 29C37.245 32.12 36.4153 34.522 34.7803 36.14C32.1591 38.731 27.9009 38.974 24.7866 38.724C24.2691 38.679 23.82 39.095 23.7806 39.646C23.7412 40.196 24.1284 40.676 24.6441 40.718C25.2675 40.769 25.9331 40.8 26.625 40.8C29.7956 40.8 33.4941 40.137 36.0544 37.606C38.0888 35.595 39.12 32.7 39.12 29.001C39.12 19.902 42.3356 17.905 42.3516 17.896C42.7416 17.687 42.9459 17.219 42.8438 16.767Z" fill="white"/>
    </g>
  </symbol>

    <symbol id="pot" viewBox="0 0 60 60">
        <rect width="60" height="60" fill="#68B738"/>
        <path d="M28.375 16C26.7437 16 25.475 17.3594 25.475 19.0812C25.475 20.8031 26.7437 22.1625 28.375 22.1625C30.0063 22.1625 31.275 20.8031 31.275 19.0812C31.275 17.3594 30.0063 16 28.375 16ZM28.375 17.1781C29.3719 17.1781 30.0969 18.0209 30.0969 19.0812C30.0969 20.0781 29.3084 20.9844 28.375 20.9844C27.3781 20.9844 26.6531 20.1416 26.6531 19.0812C26.6531 18.0844 27.4325 17.1781 28.375 17.1781ZM17.5 40.7406C17.5 41.9188 17.9078 42.9156 18.8594 43.7313C19.8563 44.5831 21.0344 44.5106 21.0344 44.5106H40.0656C40.845 44.5106 41.8781 44.13 42.6937 43.0606C43.5366 42.0638 43.4822 40.7044 43.4822 40.7044V23.4856C43.4822 23.0506 43.3734 22.8875 42.7391 22.8875C42.1047 22.8875 42.0503 23.1594 42.0503 23.4766V40.6953C42.0322 40.9944 41.9778 41.7828 41.3072 42.4172C40.5731 43.0425 39.8572 42.9609 39.8572 42.9609C39.8572 42.9609 21.7322 42.9609 20.8259 42.9338C20.4816 42.8703 19.9197 42.7434 19.3759 42.0275C18.8684 41.3025 18.9681 40.3962 18.9681 40.3962V23.1775C18.9681 22.7153 18.7325 22.5431 18.2431 22.5431C17.7538 22.5431 17.5 22.7153 17.5 23.1231V40.7406ZM33.8125 24.4281C32.725 24.6637 31.6375 24.8088 29.5531 26.7844C27.4688 28.7781 25.9281 28.6875 24.3875 28.5969C22.8469 28.5063 21.2156 27.0563 20.9438 26.6938C20.6084 26.3403 20.0375 26.5759 19.8562 26.8116C19.7022 27.0472 19.7022 27.455 19.965 27.8084C21.2338 28.9866 22.4119 29.8928 24.6775 30.0741C26.9431 30.2916 29.1181 29.2675 30.5681 27.8084C32.0181 26.3584 32.7431 26.0866 33.8306 25.9053C36.4587 25.4884 37.9994 26.5216 38.9056 27.1741C39.9025 28.2616 40.1744 27.9534 40.4462 27.6453C40.99 26.9294 40.2197 26.3766 39.3588 25.7422C37.5463 24.5641 35.8244 24.1109 33.8306 24.4734L33.8125 24.4281ZM24.75 31.5875C23.5719 31.5875 22.6656 32.5844 22.6656 33.8531C22.6656 35.1219 23.5719 36.1188 24.75 36.1188C25.9281 36.1188 26.8344 35.1219 26.8344 33.8531C26.8344 32.5844 25.9281 31.5875 24.75 31.5875ZM36.5312 32.3669C34.9906 32.3669 33.7219 33.7262 33.7219 35.3575C33.7219 36.9888 34.9906 38.3481 36.5312 38.3481C38.0719 38.3481 39.3406 36.9888 39.3406 35.3575C39.3406 33.7262 38.0719 32.3669 36.5312 32.3669ZM36.5312 33.8169C37.3288 33.8169 37.9813 34.5147 37.9813 35.3575C37.9813 36.2184 37.3288 36.8981 36.5312 36.8981C35.7337 36.8981 35.0812 36.2003 35.0812 35.3575C35.0812 34.4966 35.7337 33.8169 36.5312 33.8169Z" fill="white"/>
  </symbol>

    <symbol id="tableware" viewBox="0 0 60 60">
        <rect width="60" height="60" fill="#68B738"/>
    <path fill-rule="evenodd" clip-rule="evenodd" d="M36.1173 15.0761C36.491 14.9214 36.9211 15.0069 37.2071 15.2929C38.1156 16.2014 39.3038 18.1706 40.2659 21.2108C41.2373 24.2804 42 28.5081 42 34C42 34.5523 41.5523 35 41 35H37.5V44C37.5 44.5523 37.0523 45 36.5 45C35.9477 45 35.5 44.5523 35.5 44V16C35.5 15.5956 35.7436 15.2309 36.1173 15.0761ZM37.5 33H39.9912C39.9053 28.1836 39.2051 24.4875 38.3591 21.8142C38.0807 20.9346 37.7885 20.1715 37.5 19.519V33Z" fill="white"/>
    <path fill-rule="evenodd" clip-rule="evenodd" d="M23.5 15C24.0523 15 24.5 15.4477 24.5 16V44C24.5 44.5523 24.0523 45 23.5 45C22.9477 45 22.5 44.5523 22.5 44V16C22.5 15.4477 22.9477 15 23.5 15Z" fill="white"/>
    <path fill-rule="evenodd" clip-rule="evenodd" d="M19 15C19.5523 15 20 15.4477 20 16V21.5C20 22.0569 20.192 22.8152 20.7009 23.4166C21.18 23.9828 22.0145 24.5 23.4999 24.5C24.0522 24.5 24.4999 24.9477 24.4999 25.5C24.4999 26.0523 24.0522 26.5 23.4999 26.5C21.4855 26.5 20.07 25.7672 19.1741 24.7084C18.308 23.6848 18 22.4431 18 21.5V16C18 15.4477 18.4477 15 19 15Z" fill="white"/>
    <path fill-rule="evenodd" clip-rule="evenodd" d="M28 15C27.4477 15 27 15.4477 27 16V21.5C27 22.0569 26.808 22.8152 26.2991 23.4166C25.82 23.9828 24.9854 24.5 23.4999 24.5C22.9476 24.5 22.5001 24.9477 22.5001 25.5C22.5001 26.0523 22.9476 26.5 23.4999 26.5C25.5144 26.5 26.93 25.7672 27.8259 24.7084C28.692 23.6848 29 22.4431 29 21.5V16C29 15.4477 28.5523 15 28 15Z" fill="white"/>

  </symbol>

  <symbol id="clock" viewBox="0 0 60 60">
    <rect width="60" height="60" fill="#68B738"/>
    <path d="M23.1206 15C22.0538 15 22.0538 16.5831 23.1206 16.5831H29.7878V18.1873C22.9606 18.62 17.5627 24.4142 17.5627 31.4854C17.5627 35.4959 19.3122 39.1159 22.0751 41.5539C22.5552 41.976 22.6192 42.7254 22.1818 43.1897L20.6457 44.7412C19.8989 45.4272 21.0084 46.4931 21.6804 45.7438L23.686 43.7069C24.038 43.3692 24.5607 43.2847 24.9981 43.4958C26.7228 44.3397 28.6191 44.784 30.5432 44.795C32.4673 44.8059 34.3687 44.3833 36.1031 43.5591C36.5298 43.348 37.0632 43.4325 37.4045 43.7702L39.3461 45.7438C40.0288 46.377 41.0102 45.4272 40.3915 44.7412L38.9407 43.2636C38.4926 42.8098 38.5567 42.0605 39.0474 41.6277C40.5031 40.3585 41.6674 38.7959 42.4623 37.0447C43.2571 35.2936 43.6641 33.3944 43.6558 31.4748C43.6558 24.4036 38.226 18.5989 31.388 18.1873V16.5831H38.0553C39.122 16.5831 39.122 15 38.0553 15H23.1206ZM19.0029 31.4748C19.0029 24.9419 24.198 19.6543 30.6093 19.6543C37.0098 19.6543 42.205 24.9419 42.205 31.4748C42.205 38.0183 37.0098 43.3164 30.6093 43.3164C24.2087 43.3164 19.0029 38.0183 19.0029 31.4748ZM29.7985 23.3799C29.7985 22.2823 31.4627 22.2823 31.4627 23.3799V32.0131C31.4627 32.237 31.3728 32.4517 31.2127 32.6101C31.0527 32.7684 30.8356 32.8574 30.6093 32.8574C30.3961 32.8574 30.1915 32.7743 30.0397 32.6262C29.888 32.478 29.8013 32.2767 29.7985 32.0658V23.3799ZM24.8061 25.9973C25.1144 25.9973 25.4102 25.8761 25.6283 25.6603C25.8463 25.4446 25.9688 25.152 25.9688 24.8469C25.9688 24.5418 25.8463 24.2492 25.6283 24.0334C25.4102 23.8177 25.1144 23.6965 24.8061 23.6965C24.5183 23.7239 24.2511 23.8563 24.0567 24.0681C23.8622 24.2798 23.7545 24.5556 23.7545 24.8416C23.7545 25.1277 23.8622 25.4034 24.0567 25.6152C24.2511 25.8269 24.5183 25.9593 24.8061 25.9867V25.9973ZM36.4018 25.9973C36.7102 25.9973 37.0059 25.8761 37.224 25.6603C37.4421 25.4446 37.5646 25.152 37.5646 24.8469C37.5646 24.5418 37.4421 24.2492 37.224 24.0334C37.0059 23.8177 36.7102 23.6965 36.4018 23.6965C36.114 23.7239 35.8468 23.8563 35.6524 24.0681C35.458 24.2798 35.3503 24.5556 35.3503 24.8416C35.3503 25.1277 35.458 25.4034 35.6524 25.6152C35.8468 25.8269 36.114 25.9593 36.4018 25.9867V25.9973ZM25.9688 38.5882C25.9688 40.1185 23.6433 40.1185 23.6433 38.5882C23.6433 37.0579 25.9688 37.0579 25.9688 38.5882ZM30.6093 42.0288C30.7706 42.0441 30.9334 42.0259 31.0872 41.9754C31.241 41.9248 31.3824 41.843 31.5024 41.7352C31.6223 41.6273 31.7182 41.4959 31.7838 41.3493C31.8494 41.2026 31.8833 41.044 31.8833 40.8837C31.8833 40.7233 31.8494 40.5648 31.7838 40.4181C31.7182 40.2715 31.6223 40.14 31.5024 40.0322C31.3824 39.9244 31.241 39.8426 31.0872 39.792C30.9334 39.7414 30.7706 39.7232 30.6093 39.7386C30.3215 39.7659 30.0543 39.8984 29.8599 40.1101C29.6654 40.3219 29.5577 40.5976 29.5577 40.8837C29.5577 41.1697 29.6654 41.4455 29.8599 41.6572C30.0543 41.869 30.3215 42.0014 30.6093 42.0288ZM22.4912 31.6437C22.5067 31.8033 22.4883 31.9643 22.4372 32.1165C22.3861 32.2687 22.3034 32.4086 22.1944 32.5273C22.0854 32.646 21.9525 32.7408 21.8043 32.8057C21.6561 32.8706 21.4958 32.9041 21.3337 32.9041C21.1717 32.9041 21.0114 32.8706 20.8632 32.8057C20.7149 32.7408 20.5821 32.646 20.4731 32.5273C20.3641 32.4086 20.2814 32.2687 20.2303 32.1165C20.1792 31.9643 20.1608 31.8033 20.1763 31.6437C20.204 31.3589 20.3378 31.0946 20.5518 30.9023C20.7659 30.7099 21.0446 30.6033 21.3337 30.6033C21.6229 30.6033 21.9016 30.7099 22.1156 30.9023C22.3296 31.0946 22.4635 31.3589 22.4912 31.6437ZM39.8794 32.794C40.0408 32.8094 40.2036 32.7912 40.3574 32.7406C40.5112 32.6901 40.6526 32.6082 40.7726 32.5004C40.8925 32.3926 40.9884 32.2611 41.054 32.1145C41.1196 31.9679 41.1535 31.8093 41.1535 31.6489C41.1535 31.4886 41.1196 31.33 41.054 31.1834C40.9884 31.0367 40.8925 30.9053 40.7726 30.7975C40.6526 30.6896 40.5112 30.6078 40.3574 30.5573C40.2036 30.5067 40.0408 30.4885 39.8794 30.5038C39.5916 30.5312 39.3245 30.6637 39.13 30.8754C38.9356 31.0871 38.8279 31.3629 38.8279 31.6489C38.8279 31.935 38.9356 32.2108 39.13 32.4225C39.3245 32.6342 39.5916 32.7667 39.8794 32.794ZM37.5646 38.5987C37.5646 40.1185 35.239 40.1185 35.239 38.5882C35.239 37.0579 37.5646 37.0579 37.5646 38.5882V38.5987Z" fill="white"/>

  </symbol>

  <symbol id="footer-logo" viewBox="0 0 128 24">
    <g clip-path="url(#clip0_92920_47)">
        <path d="M1.6236 21.9574C0.489608 20.2815 -0.0733133 18.2722 0.0213584 16.2383V7.7617C-0.115966 5.70593 0.411707 3.66097 1.52346 1.94043C2.62499 0.612766 4.32737 0 6.83086 0C9.33436 0 10.9366 0.612766 11.938 1.73617C13.0252 3.15904 13.56 4.9407 13.4401 6.74043V8.78298H8.53324V6.43404C8.57287 5.73932 8.47057 5.04378 8.23282 4.39149C8.10574 4.12819 7.90433 3.90969 7.65449 3.76409C7.40465 3.61849 7.11781 3.55245 6.83086 3.57447C6.12989 3.57447 5.62919 3.77872 5.42891 4.28936C5.20237 5.015 5.10073 5.77516 5.12849 6.53617V17.4638C5.0756 18.2022 5.21373 18.9417 5.52905 19.6085C5.72933 20.1192 6.23003 20.3234 6.931 20.3234C7.63198 20.3234 8.03254 20.1192 8.23282 19.6085C8.4605 18.9183 8.56232 18.1914 8.53324 17.4638V15.0128H13.4401V17.0553C13.5419 18.8844 13.0103 20.6918 11.938 22.1617C10.9366 23.3872 9.23422 24 6.83086 24C4.42751 23.8979 2.62499 23.2851 1.6236 21.9574Z" fill="#111111"/>
        <path d="M19.3483 0.306396H25.0563L29.2622 23.5915H24.6557L23.8546 18.6894H20.55L19.7489 23.5915H15.0423L19.3483 0.306396ZM23.454 15.6255L22.2524 6.53618L21.0507 15.6255H23.454Z" fill="#111111"/>
        <path d="M32.767 4.18725H29.3623V0.306396H41.2789V4.08512H37.8742V23.5915H32.767V4.18725Z" fill="#111111"/>
        <path d="M50.3916 0.306396H59.2039V2.75746H53.496V10.417H58.1024V12.766H53.496V21.3447H59.2039V23.6936H50.2915V0.306396H50.3916Z" fill="#111111"/>
        <path d="M61.8076 0.306396H64.0107L70.5198 15.7277V0.306396H73.1234V23.5915H71.1206L64.5114 7.65959V23.5915H61.8076V0.306396Z" fill="#111111"/>
        <path d="M76.1276 0.306396H84.9399V2.75746H79.2319V10.417H83.8383V12.766H79.2319V21.3447H84.9399V23.6936H76.1276V0.306396Z" fill="#111111"/>
        <path d="M87.5435 0.306296H92.1499C93.962 0.178639 95.7629 0.682798 97.2571 1.73608C98.3586 2.65523 98.8593 4.28927 98.8593 6.43396C98.8593 9.39566 97.958 11.234 96.0554 11.8467L99.2599 23.4893H96.1555L93.1513 12.5616H90.6478V23.4893H87.4434V0.306296H87.5435ZM91.9497 10.3148C92.982 10.4016 94.011 10.1121 94.8537 9.49778C95.4546 8.98715 95.755 7.96587 95.755 6.43396C95.7827 5.67295 95.6811 4.91279 95.4546 4.18715C95.2292 3.66645 94.8421 3.23582 94.353 2.96162C93.6633 2.64108 92.9062 2.50069 92.1499 2.5531H90.748V10.2127H91.9497V10.3148Z" fill="#111111"/>
        <path d="M102.865 21.8554C101.824 20.0697 101.335 18.0053 101.463 15.932V8.17025C101.438 6.69026 101.607 5.21349 101.964 3.77876C102.299 2.70664 102.967 1.77469 103.866 1.12344C104.984 0.448453 106.274 0.128462 107.571 0.204291C109.674 0.204291 111.177 0.714929 112.078 1.83833C113.115 3.32172 113.61 5.12795 113.48 6.94472V7.76174H110.476V7.04684C110.48 6.19152 110.413 5.33736 110.275 4.49365C110.191 3.96049 109.903 3.48313 109.474 3.16599C108.911 2.78921 108.243 2.60993 107.571 2.65535C106.853 2.60843 106.143 2.82587 105.569 3.26812C105.333 3.47055 105.141 3.71989 105.003 4.00086C104.865 4.28184 104.785 4.58853 104.768 4.90216C104.636 5.81517 104.569 6.73673 104.567 7.65961V16.3405C104.493 17.663 104.698 18.9863 105.168 20.2213C105.569 21.0383 106.37 21.3447 107.571 21.3447C108.046 21.405 108.527 21.3208 108.955 21.1028C109.383 20.8847 109.737 20.5425 109.975 20.1192C110.504 18.8277 110.743 17.432 110.676 16.0341V14.4H107.772V12.0511H113.58V23.5915H111.577L111.277 20.9362C111.014 21.8261 110.467 22.601 109.724 23.1376C108.98 23.6742 108.081 23.9419 107.171 23.8979C106.343 23.9475 105.517 23.7869 104.765 23.4304C104.014 23.0739 103.361 22.5327 102.865 21.8554Z" fill="#111111"/>
        <path d="M119.989 15.4212L115.082 0.408447H118.086L121.591 11.6425L124.996 0.408447H128L123.093 15.4212V23.5914H120.089V15.4212H119.989Z" fill="#111111"/>
        </g>
  </symbol>

  <symbol id="icon-vk" viewBox="0 0 28 22">
    <path d="M1 5.33876C1 4.48373 1.5151 4.02268 2.54531 3.95562L6.51515 3.98077C6.78158 3.98077 6.95921 4.10651 7.04802 4.35799C7.45655 5.61538 7.91392 6.70094 8.42014 7.61465C8.92637 8.52835 9.58801 9.58038 10.4051 10.7707C10.4761 10.9216 10.5916 10.997 10.7514 10.997C10.8758 10.997 10.9735 10.9384 11.0445 10.821L11.1244 10.5444L11.1511 6.19379C11.1511 5.89201 11.0756 5.69083 10.9246 5.59024C10.7736 5.48965 10.4939 5.4142 10.0853 5.36391C9.76563 5.31361 9.60577 5.12919 9.60577 4.81065C9.60577 4.74359 9.61465 4.69329 9.63241 4.65976C10.0054 3.57002 11.0711 3.02515 12.8296 3.02515L14.3216 3C14.9966 3 15.5561 3.15927 16.0001 3.47781C16.4442 3.79635 16.6662 4.29931 16.6662 4.98669V10.6953C16.7906 10.7791 16.906 10.821 17.0126 10.821C17.279 10.821 17.5099 10.6701 17.7053 10.3683C19.6592 7.78649 20.716 6.05966 20.8759 5.18787C20.8759 5.1711 20.8936 5.12919 20.9291 5.06213C21.0535 4.81065 21.2577 4.5927 21.5419 4.40828C21.8261 4.22387 22.0748 4.09813 22.288 4.03107C22.359 3.99753 22.4389 3.98077 22.5277 3.98077H26.6574L26.9239 4.00592C27.2791 4.00592 27.5544 4.16519 27.7498 4.48373C27.8209 4.58432 27.8697 4.69329 27.8964 4.81065C27.923 4.92801 27.9408 5.04536 27.9496 5.16272C27.9585 5.28008 27.963 5.34714 27.963 5.36391V5.53994C27.8386 6.22732 27.5233 6.9608 27.0171 7.74038C26.5109 8.51997 25.867 9.36243 25.0855 10.2678C24.304 11.1731 23.8155 11.7682 23.6201 12.0533C23.4603 12.2544 23.3803 12.4389 23.3803 12.6065C23.3803 12.7406 23.4514 12.8915 23.5935 13.0592L27.4834 17.6864C27.6965 17.9546 27.8031 18.248 27.8031 18.5666C27.8031 18.9522 27.6432 19.2707 27.3235 19.5222C27.0038 19.7737 26.6219 19.9162 26.1779 19.9497L25.7249 19.9749H21.6752C21.6574 19.9749 21.6219 19.979 21.5686 19.9874C21.5153 19.9958 21.4798 20 21.462 20C21.0712 20 20.7071 19.8407 20.3696 19.5222C20.2453 19.3881 19.4105 18.3989 17.8652 16.5547C17.7764 16.4374 17.652 16.3284 17.4922 16.2278C17.4211 16.4961 17.3279 16.8817 17.2124 17.3846C17.097 17.8876 17.0126 18.248 16.9593 18.466L16.8794 18.8935C16.7018 19.4803 16.3287 19.8323 15.7604 19.9497L15.3874 19.9749H12.7763C11.3021 19.9749 9.83224 19.3378 8.36686 18.0636C6.90148 16.7894 5.58264 15.1423 4.41034 13.122C3.23803 11.1018 2.14566 8.75049 1.13322 6.06805C1.04441 5.8501 1 5.607 1 5.33876ZM17.0126 11.8521C16.6396 11.8521 16.3021 11.7557 16.0001 11.5629C15.6982 11.3701 15.5472 11.106 15.5472 10.7707V4.98669C15.5472 4.65138 15.4584 4.41248 15.2808 4.26997C15.1032 4.12747 14.7923 4.05621 14.3483 4.05621L12.8296 4.10651C12.0658 4.10651 11.4886 4.23225 11.0978 4.48373C11.8793 4.8358 12.2701 5.40582 12.2701 6.19379V10.6198C12.2346 11.039 12.0569 11.3868 11.7372 11.6635C11.4175 11.9401 11.0623 12.0784 10.6715 12.0784C10.1386 12.0784 9.7301 11.8353 9.44591 11.3491C8.06046 9.37081 7.03025 7.4931 6.35529 5.71598L6.1155 5.06213L2.57195 5.03698C2.34104 5.03698 2.21227 5.04956 2.18562 5.0747C2.15898 5.09985 2.14566 5.1711 2.14566 5.28846C2.14566 5.43935 2.16342 5.59862 2.19895 5.76627L2.75845 7.17456C4.25048 10.8126 5.87127 13.6795 7.62085 15.7751C9.37042 17.8708 11.0889 18.9186 12.7763 18.9186H15.4406C15.5472 18.9186 15.6271 18.8893 15.6804 18.8306C15.7337 18.7719 15.7781 18.6588 15.8136 18.4911L15.8669 18.2396L16.3732 16.0266C16.5152 15.7249 16.6396 15.5237 16.7462 15.4231C16.9415 15.2387 17.1725 15.1465 17.4389 15.1465C17.8652 15.1465 18.3003 15.3895 18.7444 15.8757L21.0091 18.5917C21.1512 18.8097 21.3022 18.9186 21.462 18.9186H25.8581C26.391 18.9186 26.6574 18.7929 26.6574 18.5414C26.6574 18.4576 26.6308 18.3738 26.5775 18.2899L22.7142 13.7382C22.4123 13.3861 22.2613 13.0089 22.2613 12.6065C22.2613 12.2041 22.4034 11.8185 22.6876 11.4497C22.9185 11.1144 23.367 10.557 24.0331 9.77737C24.6992 8.99778 25.2809 8.26849 25.7782 7.5895C26.2756 6.9105 26.6042 6.29438 26.764 5.74112L26.8439 5.4142C26.8262 5.38067 26.8173 5.32618 26.8173 5.25074C26.8173 5.1753 26.8084 5.11243 26.7907 5.06213H22.6077C22.3412 5.16272 22.1281 5.31361 21.9682 5.51479L21.8084 5.9926C21.3643 7.14941 20.2009 8.93491 18.3181 11.3491C17.9451 11.6844 17.5099 11.8521 17.0126 11.8521Z" />

  </symbol>

  <symbol id="icon-youtube" viewBox="0 0 28 22">
    <g>
      <path id="Vector" d="M17.8509 10.7927L12.6145 7.30184C12.5159 7.23691 12.4016 7.19985 12.2837 7.19459C12.1657 7.18934 12.0486 7.21608 11.9446 7.27198C11.8406 7.32789 11.7537 7.41087 11.693 7.51215C11.6324 7.61343 11.6002 7.72924 11.6 7.84729V14.8291C11.6001 14.9481 11.6327 15.0648 11.6942 15.1667C11.7557 15.2686 11.8438 15.3518 11.9491 15.4073C12.0524 15.4631 12.1691 15.4895 12.2864 15.4837C12.4037 15.478 12.5172 15.4402 12.6145 15.3746L17.8509 11.8837C17.9409 11.8239 18.0148 11.7429 18.0658 11.6477C18.1169 11.5526 18.1436 11.4462 18.1436 11.3382C18.1436 11.2302 18.1169 11.1239 18.0658 11.0287C18.0148 10.9335 17.9409 10.8525 17.8509 10.7927ZM12.9091 13.6073V9.06911L16.3127 11.3382L12.9091 13.6073ZM25.3891 5.04366C25.2942 4.67547 25.1131 4.33511 24.8609 4.05061C24.6086 3.76611 24.2924 3.54561 23.9382 3.40729C20.2182 1.9782 14.2509 2.00002 14 2.00002C13.7491 2.00002 7.78182 1.9782 4.06182 3.40729C3.70764 3.54561 3.3914 3.76611 3.13914 4.05061C2.88689 4.33511 2.70584 4.67547 2.61091 5.04366C2.32727 6.11275 2 8.07638 2 11.3382C2 14.6 2.32727 16.5637 2.61091 17.6327C2.70584 18.0009 2.88689 18.3413 3.13914 18.6258C3.3914 18.9103 3.70764 19.1308 4.06182 19.2691C7.78182 20.6982 13.7491 20.6764 14 20.6764H14.0764C14.8291 20.6764 20.3927 20.6327 23.9382 19.2691C24.2924 19.1308 24.6086 18.9103 24.8609 18.6258C25.1131 18.3413 25.2942 18.0009 25.3891 17.6327C25.6727 16.5637 26 14.6 26 11.3382C26 8.07638 25.6727 6.11275 25.3891 5.04366ZM24.1236 17.3055C24.0807 17.472 23.999 17.6259 23.8853 17.7548C23.7715 17.8838 23.6289 17.984 23.4691 18.0473C19.9782 19.3891 14.0655 19.3673 14 19.3673C13.9345 19.3673 8.02182 19.3891 4.53091 18.0473C4.37107 17.984 4.22846 17.8838 4.11471 17.7548C4.00096 17.6259 3.91929 17.472 3.87636 17.3055C3.61455 16.3018 3.30909 14.4582 3.30909 11.3382C3.30909 8.2182 3.61455 6.37457 3.87636 5.37093C3.91929 5.20445 4.00096 5.05047 4.11471 4.92156C4.22846 4.79264 4.37107 4.69243 4.53091 4.62911C8.02182 3.28729 13.9345 3.30911 14 3.30911C14.0655 3.30911 19.9782 3.28729 23.4691 4.62911C23.6289 4.69243 23.7715 4.79264 23.8853 4.92156C23.999 5.05047 24.0807 5.20445 24.1236 5.37093C24.3855 6.37457 24.6909 8.2182 24.6909 11.3382C24.6909 14.4582 24.3855 16.3018 24.1236 17.3055Z"/>
    </g>
</symbol>

<symbol id="icon-telegram" viewBox="0 0 28 22">
    <path fill-rule="evenodd" clip-rule="evenodd" d="M23.4608 3.15291C23.6393 3.30222 23.7255 3.5349 23.6872 3.76448L21.0611 19.5214C21.0244 19.7411 20.8789 19.9273 20.6745 20.0159C20.47 20.1045 20.2346 20.0833 20.0493 19.9597L12.1708 14.7074C12.0177 14.6054 11.9145 14.4437 11.8862 14.2619C11.858 14.08 11.9074 13.8947 12.0223 13.751L14.633 10.4877L10.273 13.3944C10.077 13.525 9.82597 13.5407 9.61524 13.4353L4.36293 10.8092C4.12769 10.6915 3.98535 10.4449 4.0012 10.1824C4.01705 9.91983 4.18804 9.6921 4.43573 9.60364L22.8188 3.03826C23.038 2.95998 23.2822 3.00359 23.4608 3.15291ZM6.32626 10.3228L9.86168 12.0905L17.4231 7.0495C17.6925 6.86994 18.0525 6.91349 18.2712 7.1521C18.49 7.3907 18.5022 7.75314 18.3 8.00591L13.495 14.0121L19.9328 18.3039L22.2083 4.65058L6.32626 10.3228Z"/>
</symbol>

<symbol id="logo-html-academy" viewBox="0 0 27 34">
    <g id="&#208;&#155;&#208;&#190;&#208;&#179;&#208;&#190;_html 1" clip-path="url(#clip0_0_1)">
    <path id="html academy " d="M13.6426 0.0157537L13.5 0L0 1.40733V26.0129L13.5 34L27 26.0129V1.40733L13.6426 0.0157537ZM25.2344 25.0151L13.5 31.9573L1.76561 25.0151V14.9293L13.4507 21.8451L13.4701 23.0984L5.45351 18.3548L5.44295 19.5801L13.4894 24.3885L13.5088 25.675L5.46408 20.9174L5.45351 22.1427L13.5 26.9511L21.6239 22.1182V20.8929V16.909L25.2432 14.7595L25.2344 25.0151ZM25.2344 13.4519L22.0147 15.3319L20.5325 16.2071L13.4666 12.0201L13.456 13.2454L19.4957 16.818L19.4429 16.8495L19.3126 16.9247L18.4536 17.4166L13.4666 14.4689L13.456 15.6942L17.3921 18.0222L16.4591 18.6314L16.438 18.6436L13.4666 16.902L13.456 18.1273L15.4029 19.2615L13.4155 20.4483L1.7973 13.5762L13.4349 6.61831L25.2344 13.4519ZM25.2344 12.2266L13.4401 5.31075L1.76561 12.2196V2.9897L13.5 1.76442L25.2344 2.9897V12.2266Z" />
    </g>
</symbol>

<symbol id="icon-gift" viewBox="0 0 78 81">
    <path d="M64.0156 35.6325H14.031C12.2766 35.6325 10.8494 34.2144 10.8494 32.4709V22.9989C10.8494 21.2554 12.2766 19.8367 14.031 19.8367H64.0149C65.7687 19.8367 67.1953 21.2554 67.1953 22.9989V32.4715C67.1959 34.2144 65.7693 35.6325 64.0156 35.6325ZM14.031 22.2598C13.6276 22.2598 13.2869 22.5984 13.2869 22.9989V32.4715C13.2869 32.8786 13.6208 33.21 14.031 33.21H64.0149C64.4244 33.21 64.7578 32.8786 64.7578 32.4715V22.9989C64.7578 22.5978 64.4171 22.2598 64.0149 22.2598H14.031Z" fill="white"/>
<path d="M57.0447 68.0821H20.999C17.6218 68.0821 14.8741 65.3512 14.8741 61.9933V34.421C14.8741 33.7523 15.4201 33.2095 16.0929 33.2095C16.7656 33.2095 17.3116 33.7523 17.3116 34.421V61.9933C17.3116 64.0148 18.9661 65.6589 20.999 65.6589H57.0447C59.077 65.6589 60.7308 64.0148 60.7308 61.9933V34.421C60.7308 33.7523 61.2768 33.2095 61.9496 33.2095C62.6223 33.2095 63.1683 33.7523 63.1683 34.421V61.9933C63.1683 65.3512 60.4213 68.0821 57.0447 68.0821Z" fill="white"/>
<path d="M39.0225 68.0821C38.3498 68.0821 37.8038 67.5399 37.8038 66.8705V34.421C37.8038 33.7523 38.3498 33.2095 39.0225 33.2095C39.6953 33.2095 40.2413 33.7523 40.2413 34.421V66.8699C40.2413 67.5399 39.6959 68.0821 39.0225 68.0821Z" fill="white"/>
<path d="M23.8113 22.2556C19.9966 20.2008 18.5731 15.4442 20.6383 11.6513C22.7022 7.86033 27.4864 6.44461 31.303 8.4958C37.117 11.6265 40.2565 20.3607 40.3869 20.7308L38.0877 21.5347C38.0585 21.4523 35.1256 13.31 30.1433 10.627C27.5078 9.21063 24.2062 10.1884 22.7821 12.8047C21.3567 15.4236 22.339 18.7069 24.9734 20.1251L23.8113 22.2556Z" fill="white"/>
<path d="M54.2313 22.2556L53.071 20.1244C54.3477 19.4369 55.2782 18.2974 55.6926 16.9156C56.1063 15.5332 55.9534 14.0732 55.2617 12.8053C54.5719 11.5362 53.4263 10.6118 52.0363 10.2005C50.6457 9.78913 49.1783 9.94058 47.9023 10.6269C42.9201 13.3093 39.9871 21.4517 39.9579 21.5341L37.6587 20.7302C37.7891 20.3601 40.928 11.6259 46.7421 8.49578C48.5897 7.50109 50.7182 7.28179 52.7316 7.87788C54.7468 8.47337 56.4061 9.81397 57.4061 11.6513C58.4073 13.4881 58.6285 15.6029 58.0289 17.6062C57.4287 19.6089 56.0801 21.2597 54.2313 22.2556Z" fill="white"/>
<path d="M61.9496 51.8567H16.0929C15.4201 51.8567 14.8741 51.3142 14.8741 50.6456C14.8741 49.9771 15.4201 49.4346 16.0929 49.4346H61.9496C62.6223 49.4346 63.1683 49.9771 63.1683 50.6456C63.1683 51.3142 62.6229 51.8567 61.9496 51.8567Z" fill="white"/>
</symbol>

<symbol id="plus" viewBox="0 0 60 60">
  <line x1="31" x2="31" y2="60" stroke="#D3D3D3" stroke-width="2"/>
<line x1="60" y1="31" y2="31" stroke="#D3D3D3" stroke-width="2"/>
</symbol>

<symbol id="mail" viewBox="0 0 18 14" fill="none">
    <path d="M0.5 5.5V13.5H17.5V5.5M0.5 0.5H17.5V2.5L9 8.5L0.5 2.5V0.5Z"  stroke-linecap="round" stroke-linejoin="round"/>
</symbol>

<symbol id="phone" viewBox="0 0 20 20" fill="none">
  <path d="M10 10H18.5M18.5 10L16 7.5M18.5 10L16 12.5M8.5 2.5V7.5H5.5V12.5H8.5V17.5H6C4.5 17.5 3.5 16.5 3.5 15V5C3.5 3.5 4.5 2.5 6 2.5H8.5Z" stroke-linecap="round" stroke-linejoin="round"/>
</symbol>

</svg>
